<mxfile host="65bd71144e">
    <diagram id="R2lEEEUBdFMjLlhIrx00" name="Page-1">
        <mxGraphModel dx="1426" dy="419" grid="1" gridSize="10" guides="1" tooltips="1" connect="1" arrows="1" fold="1" page="1" pageScale="1" pageWidth="850" pageHeight="1100" math="0" shadow="0" extFonts="Permanent Marker^https://fonts.googleapis.com/css?family=Permanent+Marker">
            <root>
                <mxCell id="0"/>
                <mxCell id="1" parent="0"/>
                <mxCell id="cu_CBbHtvxWTSd9T1-Pg-53" value="m" style="edgeStyle=none;rounded=0;orthogonalLoop=1;jettySize=auto;html=1;exitX=0.75;exitY=1;exitDx=0;exitDy=0;entryX=0;entryY=0;entryDx=0;entryDy=0;" parent="1" source="cu_CBbHtvxWTSd9T1-Pg-1" target="cu_CBbHtvxWTSd9T1-Pg-52" edge="1">
                    <mxGeometry relative="1" as="geometry"/>
                </mxCell>
                <mxCell id="cu_CBbHtvxWTSd9T1-Pg-54" value="m" style="edgeStyle=none;rounded=0;orthogonalLoop=1;jettySize=auto;html=1;exitX=1;exitY=0.5;exitDx=0;exitDy=0;entryX=0;entryY=0;entryDx=0;entryDy=0;" parent="1" source="cu_CBbHtvxWTSd9T1-Pg-1" target="cu_CBbHtvxWTSd9T1-Pg-51" edge="1">
                    <mxGeometry relative="1" as="geometry"/>
                </mxCell>
                <mxCell id="cu_CBbHtvxWTSd9T1-Pg-60" style="edgeStyle=none;rounded=0;orthogonalLoop=1;jettySize=auto;html=1;exitX=0.5;exitY=1;exitDx=0;exitDy=0;entryX=0.5;entryY=0;entryDx=0;entryDy=0;" parent="1" source="cu_CBbHtvxWTSd9T1-Pg-1" target="cu_CBbHtvxWTSd9T1-Pg-59" edge="1">
                    <mxGeometry relative="1" as="geometry"/>
                </mxCell>
                <mxCell id="cu_CBbHtvxWTSd9T1-Pg-1" value="buyer" style="rounded=1;arcSize=10;whiteSpace=wrap;html=1;align=center;fillColor=#6a00ff;fontColor=#ffffff;strokeColor=#3700CC;" parent="1" vertex="1">
                    <mxGeometry x="180" y="160" width="100" height="40" as="geometry"/>
                </mxCell>
                <mxCell id="cu_CBbHtvxWTSd9T1-Pg-31" style="edgeStyle=none;rounded=0;orthogonalLoop=1;jettySize=auto;html=1;exitX=0.75;exitY=0;exitDx=0;exitDy=0;" parent="1" source="cu_CBbHtvxWTSd9T1-Pg-2" target="cu_CBbHtvxWTSd9T1-Pg-24" edge="1">
                    <mxGeometry relative="1" as="geometry"/>
                </mxCell>
                <mxCell id="cu_CBbHtvxWTSd9T1-Pg-32" style="edgeStyle=none;rounded=0;orthogonalLoop=1;jettySize=auto;html=1;exitX=0.75;exitY=1;exitDx=0;exitDy=0;entryX=0.5;entryY=0;entryDx=0;entryDy=0;" parent="1" source="cu_CBbHtvxWTSd9T1-Pg-2" target="cu_CBbHtvxWTSd9T1-Pg-27" edge="1">
                    <mxGeometry relative="1" as="geometry"/>
                </mxCell>
                <mxCell id="cu_CBbHtvxWTSd9T1-Pg-35" style="edgeStyle=none;rounded=0;orthogonalLoop=1;jettySize=auto;html=1;exitX=0;exitY=0;exitDx=0;exitDy=0;entryX=1;entryY=1;entryDx=0;entryDy=0;" parent="1" source="cu_CBbHtvxWTSd9T1-Pg-2" target="cu_CBbHtvxWTSd9T1-Pg-34" edge="1">
                    <mxGeometry relative="1" as="geometry"/>
                </mxCell>
                <mxCell id="cu_CBbHtvxWTSd9T1-Pg-2" value="seller" style="rounded=1;arcSize=10;whiteSpace=wrap;html=1;align=center;fillColor=#0050ef;fontColor=#ffffff;strokeColor=#001DBC;" parent="1" vertex="1">
                    <mxGeometry x="570" y="120" width="100" height="40" as="geometry"/>
                </mxCell>
                <mxCell id="cu_CBbHtvxWTSd9T1-Pg-13" style="rounded=0;orthogonalLoop=1;jettySize=auto;html=1;exitX=1;exitY=0.5;exitDx=0;exitDy=0;entryX=0;entryY=0.5;entryDx=0;entryDy=0;" parent="1" source="cu_CBbHtvxWTSd9T1-Pg-3" target="cu_CBbHtvxWTSd9T1-Pg-1" edge="1">
                    <mxGeometry relative="1" as="geometry"/>
                </mxCell>
                <mxCell id="cu_CBbHtvxWTSd9T1-Pg-3" value="name" style="ellipse;whiteSpace=wrap;html=1;align=center;" parent="1" vertex="1">
                    <mxGeometry y="160" width="100" height="40" as="geometry"/>
                </mxCell>
                <mxCell id="cu_CBbHtvxWTSd9T1-Pg-17" style="rounded=0;orthogonalLoop=1;jettySize=auto;html=1;exitX=0;exitY=1;exitDx=0;exitDy=0;entryX=0.75;entryY=0;entryDx=0;entryDy=0;" parent="1" source="cu_CBbHtvxWTSd9T1-Pg-4" target="cu_CBbHtvxWTSd9T1-Pg-1" edge="1">
                    <mxGeometry relative="1" as="geometry"/>
                </mxCell>
                <mxCell id="cu_CBbHtvxWTSd9T1-Pg-4" value="_id" style="ellipse;whiteSpace=wrap;html=1;align=center;" parent="1" vertex="1">
                    <mxGeometry x="240" y="20" width="100" height="40" as="geometry"/>
                </mxCell>
                <mxCell id="cu_CBbHtvxWTSd9T1-Pg-15" style="rounded=0;orthogonalLoop=1;jettySize=auto;html=1;exitX=1;exitY=0.5;exitDx=0;exitDy=0;entryX=0.25;entryY=0;entryDx=0;entryDy=0;" parent="1" source="cu_CBbHtvxWTSd9T1-Pg-5" target="cu_CBbHtvxWTSd9T1-Pg-1" edge="1">
                    <mxGeometry relative="1" as="geometry"/>
                </mxCell>
                <mxCell id="cu_CBbHtvxWTSd9T1-Pg-5" value="password" style="ellipse;whiteSpace=wrap;html=1;align=center;" parent="1" vertex="1">
                    <mxGeometry x="20" y="40" width="100" height="40" as="geometry"/>
                </mxCell>
                <mxCell id="cu_CBbHtvxWTSd9T1-Pg-12" style="rounded=0;orthogonalLoop=1;jettySize=auto;html=1;exitX=1;exitY=0;exitDx=0;exitDy=0;entryX=0;entryY=1;entryDx=0;entryDy=0;" parent="1" source="cu_CBbHtvxWTSd9T1-Pg-6" target="cu_CBbHtvxWTSd9T1-Pg-1" edge="1">
                    <mxGeometry relative="1" as="geometry"/>
                </mxCell>
                <mxCell id="cu_CBbHtvxWTSd9T1-Pg-6" value="addresses" style="ellipse;shape=doubleEllipse;margin=3;whiteSpace=wrap;html=1;align=center;" parent="1" vertex="1">
                    <mxGeometry x="-10" y="220" width="100" height="40" as="geometry"/>
                </mxCell>
                <mxCell id="cu_CBbHtvxWTSd9T1-Pg-16" style="rounded=0;orthogonalLoop=1;jettySize=auto;html=1;exitX=1;exitY=1;exitDx=0;exitDy=0;entryX=0.5;entryY=0;entryDx=0;entryDy=0;" parent="1" source="cu_CBbHtvxWTSd9T1-Pg-8" target="cu_CBbHtvxWTSd9T1-Pg-1" edge="1">
                    <mxGeometry relative="1" as="geometry"/>
                </mxCell>
                <mxCell id="cu_CBbHtvxWTSd9T1-Pg-8" value="e-mail" style="ellipse;whiteSpace=wrap;html=1;align=center;fontStyle=4;" parent="1" vertex="1">
                    <mxGeometry x="130" y="20" width="100" height="40" as="geometry"/>
                </mxCell>
                <mxCell id="cu_CBbHtvxWTSd9T1-Pg-18" style="rounded=0;orthogonalLoop=1;jettySize=auto;html=1;exitX=0;exitY=0;exitDx=0;exitDy=0;entryX=0.25;entryY=1;entryDx=0;entryDy=0;" parent="1" source="cu_CBbHtvxWTSd9T1-Pg-10" target="cu_CBbHtvxWTSd9T1-Pg-1" edge="1">
                    <mxGeometry relative="1" as="geometry"/>
                </mxCell>
                <mxCell id="cu_CBbHtvxWTSd9T1-Pg-10" value="orders" style="ellipse;shape=doubleEllipse;margin=3;whiteSpace=wrap;html=1;align=center;" parent="1" vertex="1">
                    <mxGeometry x="50" y="290" width="100" height="40" as="geometry"/>
                </mxCell>
                <mxCell id="cu_CBbHtvxWTSd9T1-Pg-11" value="cart" style="ellipse;shape=doubleEllipse;margin=3;whiteSpace=wrap;html=1;align=center;" parent="1" vertex="1">
                    <mxGeometry x="-10" y="100" width="100" height="40" as="geometry"/>
                </mxCell>
                <mxCell id="cu_CBbHtvxWTSd9T1-Pg-14" style="rounded=0;orthogonalLoop=1;jettySize=auto;html=1;exitX=1;exitY=0.5;exitDx=0;exitDy=0;entryX=0.142;entryY=0.037;entryDx=0;entryDy=0;entryPerimeter=0;" parent="1" source="cu_CBbHtvxWTSd9T1-Pg-11" target="cu_CBbHtvxWTSd9T1-Pg-1" edge="1">
                    <mxGeometry relative="1" as="geometry"/>
                </mxCell>
                <mxCell id="cu_CBbHtvxWTSd9T1-Pg-21" style="edgeStyle=none;rounded=0;orthogonalLoop=1;jettySize=auto;html=1;entryX=0;entryY=1;entryDx=0;entryDy=0;" parent="1" source="cu_CBbHtvxWTSd9T1-Pg-19" target="cu_CBbHtvxWTSd9T1-Pg-3" edge="1">
                    <mxGeometry relative="1" as="geometry"/>
                </mxCell>
                <mxCell id="cu_CBbHtvxWTSd9T1-Pg-19" value="secoondname" style="ellipse;whiteSpace=wrap;html=1;align=center;" parent="1" vertex="1">
                    <mxGeometry x="-130" y="200" width="100" height="40" as="geometry"/>
                </mxCell>
                <mxCell id="cu_CBbHtvxWTSd9T1-Pg-22" style="edgeStyle=none;rounded=0;orthogonalLoop=1;jettySize=auto;html=1;" parent="1" source="cu_CBbHtvxWTSd9T1-Pg-20" target="cu_CBbHtvxWTSd9T1-Pg-3" edge="1">
                    <mxGeometry relative="1" as="geometry"/>
                </mxCell>
                <mxCell id="cu_CBbHtvxWTSd9T1-Pg-20" value="firstname" style="ellipse;whiteSpace=wrap;html=1;align=center;" parent="1" vertex="1">
                    <mxGeometry x="-160" y="100" width="100" height="40" as="geometry"/>
                </mxCell>
                <mxCell id="cu_CBbHtvxWTSd9T1-Pg-30" style="edgeStyle=none;rounded=0;orthogonalLoop=1;jettySize=auto;html=1;entryX=0.5;entryY=0;entryDx=0;entryDy=0;" parent="1" source="cu_CBbHtvxWTSd9T1-Pg-23" target="cu_CBbHtvxWTSd9T1-Pg-2" edge="1">
                    <mxGeometry relative="1" as="geometry"/>
                </mxCell>
                <mxCell id="cu_CBbHtvxWTSd9T1-Pg-23" value="name" style="ellipse;whiteSpace=wrap;html=1;align=center;" parent="1" vertex="1">
                    <mxGeometry x="570" y="30" width="100" height="40" as="geometry"/>
                </mxCell>
                <mxCell id="cu_CBbHtvxWTSd9T1-Pg-24" value="address" style="ellipse;whiteSpace=wrap;html=1;align=center;" parent="1" vertex="1">
                    <mxGeometry x="700" y="20" width="90" height="40" as="geometry"/>
                </mxCell>
                <mxCell id="cu_CBbHtvxWTSd9T1-Pg-29" style="edgeStyle=none;rounded=0;orthogonalLoop=1;jettySize=auto;html=1;entryX=1;entryY=0.25;entryDx=0;entryDy=0;" parent="1" source="cu_CBbHtvxWTSd9T1-Pg-25" target="cu_CBbHtvxWTSd9T1-Pg-2" edge="1">
                    <mxGeometry relative="1" as="geometry"/>
                </mxCell>
                <mxCell id="cu_CBbHtvxWTSd9T1-Pg-25" value="_id" style="ellipse;whiteSpace=wrap;html=1;align=center;" parent="1" vertex="1">
                    <mxGeometry x="730" y="90" width="100" height="40" as="geometry"/>
                </mxCell>
                <mxCell id="cu_CBbHtvxWTSd9T1-Pg-28" style="edgeStyle=none;rounded=0;orthogonalLoop=1;jettySize=auto;html=1;entryX=1;entryY=0.75;entryDx=0;entryDy=0;" parent="1" source="cu_CBbHtvxWTSd9T1-Pg-26" target="cu_CBbHtvxWTSd9T1-Pg-2" edge="1">
                    <mxGeometry relative="1" as="geometry"/>
                </mxCell>
                <mxCell id="cu_CBbHtvxWTSd9T1-Pg-26" value="e-mail" style="ellipse;whiteSpace=wrap;html=1;align=center;" parent="1" vertex="1">
                    <mxGeometry x="720" y="160" width="100" height="40" as="geometry"/>
                </mxCell>
                <mxCell id="cu_CBbHtvxWTSd9T1-Pg-27" value="password" style="ellipse;whiteSpace=wrap;html=1;align=center;" parent="1" vertex="1">
                    <mxGeometry x="610" y="200" width="100" height="40" as="geometry"/>
                </mxCell>
                <mxCell id="cu_CBbHtvxWTSd9T1-Pg-34" value="balance" style="ellipse;whiteSpace=wrap;html=1;align=center;" parent="1" vertex="1">
                    <mxGeometry x="450" y="60" width="100" height="40" as="geometry"/>
                </mxCell>
                <mxCell id="cu_CBbHtvxWTSd9T1-Pg-37" value="items" style="whiteSpace=wrap;html=1;align=center;fillColor=#60a917;fontColor=#ffffff;strokeColor=#2D7600;" parent="1" vertex="1">
                    <mxGeometry x="400" y="350" width="100" height="40" as="geometry"/>
                </mxCell>
                <mxCell id="cu_CBbHtvxWTSd9T1-Pg-38" value="quantity" style="ellipse;whiteSpace=wrap;html=1;align=center;" parent="1" vertex="1">
                    <mxGeometry x="310" y="420" width="100" height="40" as="geometry"/>
                </mxCell>
                <mxCell id="cu_CBbHtvxWTSd9T1-Pg-45" style="edgeStyle=none;rounded=0;orthogonalLoop=1;jettySize=auto;html=1;exitX=0.5;exitY=0;exitDx=0;exitDy=0;entryX=0.5;entryY=1;entryDx=0;entryDy=0;" parent="1" source="cu_CBbHtvxWTSd9T1-Pg-39" target="cu_CBbHtvxWTSd9T1-Pg-37" edge="1">
                    <mxGeometry relative="1" as="geometry"/>
                </mxCell>
                <mxCell id="cu_CBbHtvxWTSd9T1-Pg-39" value="id" style="ellipse;whiteSpace=wrap;html=1;align=center;" parent="1" vertex="1">
                    <mxGeometry x="460" y="430" width="100" height="40" as="geometry"/>
                </mxCell>
                <mxCell id="cu_CBbHtvxWTSd9T1-Pg-47" style="edgeStyle=none;rounded=0;orthogonalLoop=1;jettySize=auto;html=1;exitX=0;exitY=0;exitDx=0;exitDy=0;entryX=1;entryY=0.5;entryDx=0;entryDy=0;" parent="1" source="cu_CBbHtvxWTSd9T1-Pg-41" target="cu_CBbHtvxWTSd9T1-Pg-37" edge="1">
                    <mxGeometry relative="1" as="geometry"/>
                </mxCell>
                <mxCell id="cu_CBbHtvxWTSd9T1-Pg-41" value="discription" style="ellipse;whiteSpace=wrap;html=1;align=center;" parent="1" vertex="1">
                    <mxGeometry x="550" y="350" width="100" height="40" as="geometry"/>
                </mxCell>
                <mxCell id="cu_CBbHtvxWTSd9T1-Pg-43" style="edgeStyle=none;rounded=0;orthogonalLoop=1;jettySize=auto;html=1;exitX=1;exitY=1;exitDx=0;exitDy=0;entryX=0;entryY=0.75;entryDx=0;entryDy=0;" parent="1" source="cu_CBbHtvxWTSd9T1-Pg-42" target="cu_CBbHtvxWTSd9T1-Pg-37" edge="1">
                    <mxGeometry relative="1" as="geometry"/>
                </mxCell>
                <mxCell id="cu_CBbHtvxWTSd9T1-Pg-42" value="title" style="ellipse;whiteSpace=wrap;html=1;align=center;" parent="1" vertex="1">
                    <mxGeometry x="220" y="340" width="100" height="40" as="geometry"/>
                </mxCell>
                <mxCell id="cu_CBbHtvxWTSd9T1-Pg-44" style="edgeStyle=none;rounded=0;orthogonalLoop=1;jettySize=auto;html=1;exitX=1;exitY=0;exitDx=0;exitDy=0;entryX=0.091;entryY=1.018;entryDx=0;entryDy=0;entryPerimeter=0;" parent="1" source="cu_CBbHtvxWTSd9T1-Pg-38" target="cu_CBbHtvxWTSd9T1-Pg-37" edge="1">
                    <mxGeometry relative="1" as="geometry"/>
                </mxCell>
                <mxCell id="cu_CBbHtvxWTSd9T1-Pg-49" value="1" style="edgeStyle=none;rounded=0;orthogonalLoop=1;jettySize=auto;html=1;exitX=1;exitY=0;exitDx=0;exitDy=0;entryX=0.25;entryY=1;entryDx=0;entryDy=0;shape=link;" parent="1" source="cu_CBbHtvxWTSd9T1-Pg-48" target="cu_CBbHtvxWTSd9T1-Pg-2" edge="1">
                    <mxGeometry relative="1" as="geometry"/>
                </mxCell>
                <mxCell id="cu_CBbHtvxWTSd9T1-Pg-50" value="m" style="edgeStyle=none;rounded=0;orthogonalLoop=1;jettySize=auto;html=1;exitX=0;exitY=1;exitDx=0;exitDy=0;entryX=0.75;entryY=0;entryDx=0;entryDy=0;" parent="1" source="cu_CBbHtvxWTSd9T1-Pg-48" target="cu_CBbHtvxWTSd9T1-Pg-37" edge="1">
                    <mxGeometry relative="1" as="geometry"/>
                </mxCell>
                <mxCell id="cu_CBbHtvxWTSd9T1-Pg-48" value="sell" style="shape=rhombus;perimeter=rhombusPerimeter;whiteSpace=wrap;html=1;align=center;" parent="1" vertex="1">
                    <mxGeometry x="470" y="200" width="120" height="60" as="geometry"/>
                </mxCell>
                <mxCell id="cu_CBbHtvxWTSd9T1-Pg-55" value="m" style="edgeStyle=none;rounded=0;orthogonalLoop=1;jettySize=auto;html=1;exitX=1;exitY=1;exitDx=0;exitDy=0;entryX=0.5;entryY=0;entryDx=0;entryDy=0;" parent="1" source="cu_CBbHtvxWTSd9T1-Pg-51" target="cu_CBbHtvxWTSd9T1-Pg-37" edge="1">
                    <mxGeometry relative="1" as="geometry"/>
                </mxCell>
                <mxCell id="cu_CBbHtvxWTSd9T1-Pg-51" value="buy" style="shape=rhombus;perimeter=rhombusPerimeter;whiteSpace=wrap;html=1;align=center;" parent="1" vertex="1">
                    <mxGeometry x="320" y="170" width="120" height="60" as="geometry"/>
                </mxCell>
                <mxCell id="cu_CBbHtvxWTSd9T1-Pg-56" value="m" style="edgeStyle=none;rounded=0;orthogonalLoop=1;jettySize=auto;html=1;exitX=1;exitY=1;exitDx=0;exitDy=0;entryX=0.25;entryY=0;entryDx=0;entryDy=0;" parent="1" source="cu_CBbHtvxWTSd9T1-Pg-52" target="cu_CBbHtvxWTSd9T1-Pg-37" edge="1">
                    <mxGeometry relative="1" as="geometry"/>
                </mxCell>
                <mxCell id="cu_CBbHtvxWTSd9T1-Pg-52" value="review" style="shape=rhombus;perimeter=rhombusPerimeter;whiteSpace=wrap;html=1;align=center;" parent="1" vertex="1">
                    <mxGeometry x="260" y="240" width="120" height="60" as="geometry"/>
                </mxCell>
                <mxCell id="cu_CBbHtvxWTSd9T1-Pg-59" value="image" style="ellipse;whiteSpace=wrap;html=1;align=center;" parent="1" vertex="1">
                    <mxGeometry x="160" y="280" width="80" height="30" as="geometry"/>
                </mxCell>
                <mxCell id="cu_CBbHtvxWTSd9T1-Pg-62" style="edgeStyle=none;rounded=0;orthogonalLoop=1;jettySize=auto;html=1;exitX=1;exitY=0.5;exitDx=0;exitDy=0;entryX=0;entryY=0.75;entryDx=0;entryDy=0;" parent="1" source="cu_CBbHtvxWTSd9T1-Pg-61" target="cu_CBbHtvxWTSd9T1-Pg-2" edge="1">
                    <mxGeometry relative="1" as="geometry"/>
                </mxCell>
                <mxCell id="cu_CBbHtvxWTSd9T1-Pg-61" value="image" style="ellipse;whiteSpace=wrap;html=1;align=center;" parent="1" vertex="1">
                    <mxGeometry x="425" y="130" width="80" height="30" as="geometry"/>
                </mxCell>
                <mxCell id="cu_CBbHtvxWTSd9T1-Pg-64" style="edgeStyle=none;rounded=0;orthogonalLoop=1;jettySize=auto;html=1;exitX=1;exitY=0.5;exitDx=0;exitDy=0;entryX=0;entryY=1;entryDx=0;entryDy=0;" parent="1" source="cu_CBbHtvxWTSd9T1-Pg-63" target="cu_CBbHtvxWTSd9T1-Pg-37" edge="1">
                    <mxGeometry relative="1" as="geometry"/>
                </mxCell>
                <mxCell id="cu_CBbHtvxWTSd9T1-Pg-63" value="image" style="ellipse;whiteSpace=wrap;html=1;align=center;" parent="1" vertex="1">
                    <mxGeometry x="200" y="400" width="80" height="30" as="geometry"/>
                </mxCell>
                <mxCell id="8JUgHYPcieIi5aoWpW7I-3" style="edgeStyle=orthogonalEdgeStyle;rounded=0;orthogonalLoop=1;jettySize=auto;html=1;exitX=0;exitY=1;exitDx=0;exitDy=0;entryX=1;entryY=0;entryDx=0;entryDy=0;" parent="1" source="8JUgHYPcieIi5aoWpW7I-2" target="cu_CBbHtvxWTSd9T1-Pg-37" edge="1">
                    <mxGeometry relative="1" as="geometry"/>
                </mxCell>
                <mxCell id="8JUgHYPcieIi5aoWpW7I-2" value="price" style="ellipse;whiteSpace=wrap;html=1;align=center;" parent="1" vertex="1">
                    <mxGeometry x="550" y="280" width="100" height="40" as="geometry"/>
                </mxCell>
                <mxCell id="3" style="edgeStyle=none;html=1;exitX=0;exitY=1;exitDx=0;exitDy=0;entryX=1;entryY=0;entryDx=0;entryDy=0;" edge="1" parent="1" source="2" target="cu_CBbHtvxWTSd9T1-Pg-1">
                    <mxGeometry relative="1" as="geometry"/>
                </mxCell>
                <mxCell id="2" value="phone&amp;nbsp; number" style="ellipse;whiteSpace=wrap;html=1;align=center;" vertex="1" parent="1">
                    <mxGeometry x="310" y="80" width="100" height="40" as="geometry"/>
                </mxCell>
                <mxCell id="5" style="edgeStyle=none;html=1;exitX=0;exitY=0;exitDx=0;exitDy=0;entryX=1;entryY=1;entryDx=0;entryDy=0;" edge="1" parent="1" source="4" target="cu_CBbHtvxWTSd9T1-Pg-2">
                    <mxGeometry relative="1" as="geometry"/>
                </mxCell>
                <mxCell id="4" value="phone&amp;nbsp; number" style="ellipse;whiteSpace=wrap;html=1;align=center;" vertex="1" parent="1">
                    <mxGeometry x="710" y="220" width="100" height="40" as="geometry"/>
                </mxCell>
                <mxCell id="7" style="edgeStyle=none;html=1;exitX=0;exitY=0;exitDx=0;exitDy=0;entryX=1;entryY=1;entryDx=0;entryDy=0;" edge="1" parent="1" source="6" target="cu_CBbHtvxWTSd9T1-Pg-37">
                    <mxGeometry relative="1" as="geometry"/>
                </mxCell>
                <mxCell id="6" value="cateogry" style="ellipse;whiteSpace=wrap;html=1;align=center;" vertex="1" parent="1">
                    <mxGeometry x="580" y="410" width="100" height="40" as="geometry"/>
                </mxCell>
            </root>
        </mxGraphModel>
    </diagram>
</mxfile>